<?xml version='1.0' encoding='UTF-8'?>
<mxfile version="1.0" encoding="UTF-8"><diagram name="ArchiMate Model" id="archimate_diagram"><mxGraphModel dx="1050" dy="522" grid="1" gridSize="10"><root><mxCell id="0" /><mxCell id="1" parent="0" /><mxCell id="label_Motivation" value="Motivation" style="text;html=1;align=center;verticalAlign=middle;resizable=0;points=[];" vertex="1" parent="1"><mxGeometry x="189.0" y="38.0" width="200" height="30" as="geometry" /></mxCell><mxCell id="elem_m1" value="Boost Supply Chain Resilience" style="html=1;outlineConnect=0;whiteSpace=wrap;fillColor=#CCCCFF;shape=mxgraph.archimate3.application;appType=goal;archiType=oct;" vertex="1" parent="1"><mxGeometry x="127.0" y="298.0" width="120" height="60" as="geometry" /></mxCell><mxCell id="elem_m2" value="Enhance Product Quality" style="html=1;outlineConnect=0;whiteSpace=wrap;fillColor=#CCCCFF;shape=mxgraph.archimate3.application;appType=goal;archiType=oct;" vertex="1" parent="1"><mxGeometry x="289.0" y="298.0" width="120" height="60" as="geometry" /></mxCell><mxCell id="elem_m3" value="Minimize Downtime" style="html=1;outlineConnect=0;whiteSpace=wrap;fillColor=#CCCCFF;shape=mxgraph.archimate3.application;appType=goal;archiType=oct;" vertex="1" parent="1"><mxGeometry x="451.0" y="298.0" width="120" height="60" as="geometry" /></mxCell><mxCell id="elem_m4" value="Evolving Market Demands" style="html=1;outlineConnect=0;whiteSpace=wrap;fillColor=#CCCCFF;shape=mxgraph.archimate3.application;appType=driver;archiType=oct;" vertex="1" parent="1"><mxGeometry x="289.0" y="478.0" width="120" height="60" as="geometry" /></mxCell><mxCell id="elem_m5" value="Reduced Lead Times" style="html=1;outlineConnect=0;whiteSpace=wrap;fillColor=#CCCCFF;shape=mxgraph.archimate3.application;appType=outcome;archiType=oct;" vertex="1" parent="1"><mxGeometry x="127.0" y="118.0" width="120" height="60" as="geometry" /></mxCell><mxCell id="elem_m6" value="Increased Production Efficiency" style="html=1;outlineConnect=0;whiteSpace=wrap;fillColor=#CCCCFF;shape=mxgraph.archimate3.application;appType=outcome;archiType=oct;" vertex="1" parent="1"><mxGeometry x="289.0" y="118.0" width="120" height="60" as="geometry" /></mxCell><mxCell id="elem_m7" value="Lower Operating Expenses" style="html=1;outlineConnect=0;whiteSpace=wrap;fillColor=#CCCCFF;shape=mxgraph.archimate3.application;appType=outcome;archiType=oct;" vertex="1" parent="1"><mxGeometry x="451.0" y="118.0" width="120" height="60" as="geometry" /></mxCell><mxCell id="conn_elem_m4_elem_m1" style="html=1;shape=mxgraph.archimate3.relationship;archiType=influence;" edge="1" source="elem_m4" target="elem_m1" parent="1"><mxGeometry relative="1" as="geometry" /></mxCell><mxCell id="conn_elem_m4_elem_m2" style="html=1;shape=mxgraph.archimate3.relationship;archiType=influence;" edge="1" source="elem_m4" target="elem_m2" parent="1"><mxGeometry relative="1" as="geometry" /></mxCell><mxCell id="conn_elem_m4_elem_m3" style="html=1;shape=mxgraph.archimate3.relationship;archiType=influence;" edge="1" source="elem_m4" target="elem_m3" parent="1"><mxGeometry relative="1" as="geometry" /></mxCell><mxCell id="conn_elem_m1_elem_m5" style="html=1;shape=mxgraph.archimate3.relationship;archiType=influence;" edge="1" source="elem_m1" target="elem_m5" parent="1"><mxGeometry relative="1" as="geometry" /></mxCell><mxCell id="conn_elem_m2_elem_m6" style="html=1;shape=mxgraph.archimate3.relationship;archiType=influence;" edge="1" source="elem_m2" target="elem_m6" parent="1"><mxGeometry relative="1" as="geometry" /></mxCell><mxCell id="conn_elem_m3_elem_m7" style="html=1;shape=mxgraph.archimate3.relationship;archiType=influence;" edge="1" source="elem_m3" target="elem_m7" parent="1"><mxGeometry relative="1" as="geometry" /></mxCell><mxCell id="label_Strategy" value="Strategy" style="text;html=1;align=center;verticalAlign=middle;resizable=0;points=[];" vertex="1" parent="1"><mxGeometry x="189.0" y="438.0" width="200" height="30" as="geometry" /></mxCell><mxCell id="elem_s1" value="Predictive Analytics" style="html=1;outlineConnect=0;whiteSpace=wrap;fillColor=#FFFFFF;shape=mxgraph.archimate3.rectangle;" vertex="1" parent="1"><mxGeometry x="127.0" y="698.0" width="120" height="60" as="geometry" /></mxCell><mxCell id="elem_s2" value="IoT Integration" style="html=1;outlineConnect=0;whiteSpace=wrap;fillColor=#FFFFFF;shape=mxgraph.archimate3.rectangle;" vertex="1" parent="1"><mxGeometry x="289.0" y="698.0" width="120" height="60" as="geometry" /></mxCell><mxCell id="elem_s3" value="Machine Learning" style="html=1;outlineConnect=0;whiteSpace=wrap;fillColor=#FFFFFF;shape=mxgraph.archimate3.rectangle;" vertex="1" parent="1"><mxGeometry x="451.0" y="698.0" width="120" height="60" as="geometry" /></mxCell><mxCell id="elem_s4" value="Smart Supply Chain Optimization" style="html=1;outlineConnect=0;whiteSpace=wrap;fillColor=#FFFFFF;shape=mxgraph.archimate3.rectangle;" vertex="1" parent="1"><mxGeometry x="289.0" y="518.0" width="120" height="60" as="geometry" /></mxCell><mxCell id="conn_elem_s1_elem_s4" style="html=1;shape=mxgraph.archimate3.relationship;archiType=assignment;" edge="1" source="elem_s1" target="elem_s4" parent="1"><mxGeometry relative="1" as="geometry" /></mxCell><mxCell id="conn_elem_s2_elem_s4" style="html=1;shape=mxgraph.archimate3.relationship;archiType=assignment;" edge="1" source="elem_s2" target="elem_s4" parent="1"><mxGeometry relative="1" as="geometry" /></mxCell><mxCell id="conn_elem_s3_elem_s4" style="html=1;shape=mxgraph.archimate3.relationship;archiType=assignment;" edge="1" source="elem_s3" target="elem_s4" parent="1"><mxGeometry relative="1" as="geometry" /></mxCell><mxCell id="label_Business" value="Business" style="text;html=1;align=center;verticalAlign=middle;resizable=0;points=[];" vertex="1" parent="1"><mxGeometry x="27.0" y="838.0" width="200" height="30" as="geometry" /></mxCell><mxCell id="elem_b1" value="Production Scheduling" style="html=1;outlineConnect=0;whiteSpace=wrap;fillColor=#ffff99;shape=mxgraph.archimate3.application;appType=proc;archiType=rounded;" vertex="1" parent="1"><mxGeometry x="127.0" y="1278.0" width="120" height="60" as="geometry" /></mxCell><mxCell id="elem_b2" value="Inventory Management" style="html=1;outlineConnect=0;whiteSpace=wrap;fillColor=#ffff99;shape=mxgraph.archimate3.application;appType=proc;archiType=rounded;" vertex="1" parent="1"><mxGeometry x="127.0" y="1098.0" width="120" height="60" as="geometry" /></mxCell><mxCell id="elem_b3" value="Distribution Management" style="html=1;outlineConnect=0;whiteSpace=wrap;fillColor=#ffff99;shape=mxgraph.archimate3.application;appType=proc;archiType=rounded;" vertex="1" parent="1"><mxGeometry x="127.0" y="918.0" width="120" height="60" as="geometry" /></mxCell><mxCell id="elem_b4" value="Predictive Maintenance" style="html=1;outlineConnect=0;whiteSpace=wrap;fillColor=#ffff99;shape=mxgraph.archimate3.application;appType=serv;archiType=rounded;" vertex="1" parent="1"><mxGeometry x="127.0" y="1458.0" width="120" height="60" as="geometry" /></mxCell><mxCell id="conn_elem_b1_elem_b2" style="html=1;shape=mxgraph.archimate3.relationship;archiType=association;" edge="1" source="elem_b1" target="elem_b2" parent="1"><mxGeometry relative="1" as="geometry" /></mxCell><mxCell id="conn_elem_b2_elem_b3" style="html=1;shape=mxgraph.archimate3.relationship;archiType=association;" edge="1" source="elem_b2" target="elem_b3" parent="1"><mxGeometry relative="1" as="geometry" /></mxCell><mxCell id="conn_elem_b4_elem_b1" style="html=1;shape=mxgraph.archimate3.relationship;archiType=serving;" edge="1" source="elem_b4" target="elem_b1" parent="1"><mxGeometry relative="1" as="geometry" /></mxCell><mxCell id="label_Application" value="Application" style="text;html=1;align=center;verticalAlign=middle;resizable=0;points=[];" vertex="1" parent="1"><mxGeometry x="189.0" y="1238.0" width="200" height="30" as="geometry" /></mxCell><mxCell id="elem_a1" value="Central Analytics Platform" style="html=1;outlineConnect=0;whiteSpace=wrap;fillColor=#99ffff;shape=mxgraph.archimate3.application;appType=comp;archiType=square;" vertex="1" parent="1"><mxGeometry x="289.0" y="1498.0" width="120" height="60" as="geometry" /></mxCell><mxCell id="elem_a2" value="Demand Prediction" style="html=1;outlineConnect=0;whiteSpace=wrap;fillColor=#99ffff;shape=mxgraph.archimate3.application;appType=serv;archiType=rounded;" vertex="1" parent="1"><mxGeometry x="127.0" y="1318.0" width="120" height="60" as="geometry" /></mxCell><mxCell id="elem_a3" value="Production Optimization" style="html=1;outlineConnect=0;whiteSpace=wrap;fillColor=#99ffff;shape=mxgraph.archimate3.application;appType=serv;archiType=rounded;" vertex="1" parent="1"><mxGeometry x="289.0" y="1318.0" width="120" height="60" as="geometry" /></mxCell><mxCell id="elem_a4" value="Bottleneck Prevention" style="html=1;outlineConnect=0;whiteSpace=wrap;fillColor=#99ffff;shape=mxgraph.archimate3.application;appType=serv;archiType=rounded;" vertex="1" parent="1"><mxGeometry x="451.0" y="1318.0" width="120" height="60" as="geometry" /></mxCell><mxCell id="conn_elem_a1_elem_a2" style="html=1;shape=mxgraph.archimate3.relationship;archiType=serving;" edge="1" source="elem_a1" target="elem_a2" parent="1"><mxGeometry relative="1" as="geometry" /></mxCell><mxCell id="conn_elem_a1_elem_a3" style="html=1;shape=mxgraph.archimate3.relationship;archiType=serving;" edge="1" source="elem_a1" target="elem_a3" parent="1"><mxGeometry relative="1" as="geometry" /></mxCell><mxCell id="conn_elem_a1_elem_a4" style="html=1;shape=mxgraph.archimate3.relationship;archiType=serving;" edge="1" source="elem_a1" target="elem_a4" parent="1"><mxGeometry relative="1" as="geometry" /></mxCell><mxCell id="label_Technology" value="Technology" style="text;html=1;align=center;verticalAlign=middle;resizable=0;points=[];" vertex="1" parent="1"><mxGeometry x="108.0" y="1638.0" width="200" height="30" as="geometry" /></mxCell><mxCell id="elem_t1" value="Smart Devices Network" style="html=1;outlineConnect=0;whiteSpace=wrap;fillColor=#AFFFAF;shape=mxgraph.archimate3.application;appType=node;archiType=square;" vertex="1" parent="1"><mxGeometry x="208.0" y="1718.0" width="120" height="60" as="geometry" /></mxCell><mxCell id="elem_t2" value="Sensors" style="html=1;outlineConnect=0;whiteSpace=wrap;fillColor=#FFFFFF;shape=mxgraph.archimate3.rectangle;" vertex="1" parent="1"><mxGeometry x="127.0" y="1898.0" width="120" height="60" as="geometry" /></mxCell><mxCell id="elem_t3" value="Real-time Data Capture" style="html=1;outlineConnect=0;whiteSpace=wrap;fillColor=#AFFFAF;shape=mxgraph.archimate3.application;appType=serv;archiType=rounded;" vertex="1" parent="1"><mxGeometry x="289.0" y="1898.0" width="120" height="60" as="geometry" /></mxCell><mxCell id="conn_elem_t2_elem_t1" style="html=1;shape=mxgraph.archimate3.relationship;archiType=association;" edge="1" source="elem_t2" target="elem_t1" parent="1"><mxGeometry relative="1" as="geometry" /></mxCell><mxCell id="conn_elem_t3_elem_t1" style="html=1;shape=mxgraph.archimate3.relationship;archiType=serving;" edge="1" source="elem_t3" target="elem_t1" parent="1"><mxGeometry relative="1" as="geometry" /></mxCell></root></mxGraphModel></diagram></mxfile>